<svg height="512" viewBox="0 0 58 59" width="512" xmlns="http://www.w3.org/2000/svg"><g id="Page-1" fill="none" fill-rule="evenodd"><g id="036---Bath" fill-rule="nonzero"><path id="Shape" d="m34 32c2.9249248 1.2477722 6.0608923 1.9265531 9.24 2 3.27 0 6.95 1.1 11.98-.77l-3.64 10.4c-1.2061117 3.4481912-4.0468971 6.0716078-7.58 7v4.37h-3l-2-4h-18l-2 4h-3v-4.43c-3.5335688-1.0109353-6.32878846-3.7198596-7.45-7.22l-5.25-16.42c.03086981-.0018587.06124839-.0086094.09-.02 1.69-.59 8.07-4.08 19.58.53.35.14.69.28 1.03.41z" fill="#3b97d3"/><path id="Shape" d="m24 24.28v5.47c-.34-.13-.68-.27-1.03-.41-11.51-4.61-17.89-3.02-19.58-2.43-.02875161.0113906-.05913019.0181413-.09.02-1.31926007.4040676-2.71982013-.3189305-3.15450586-1.6284213-.43468574-1.3094908.25549489-2.7265107 1.55450586-3.1915787 2.64-.93 10.02-2.54 22.3 2.17z" fill="#f9eab0"/><path id="Shape" d="m56.38 32.79c-.39.15-.78.3-1.16.43v.01c-5.03 1.87-8.71 2.67-11.98 2.67-3.1791077-.0734469-6.3150752-.7522278-9.24-2v-5.48c7.41 3.04 10.61 3.48 20.54-.37.8467194-.3286843 1.8044715-.1806818 2.5124802.3882566s1.0587107 1.4723773.92 2.37c-.1387107.8976228-.7457608 1.6530591-1.5924802 1.9817434z" fill="#f9eab0"/><path id="Shape" d="m12.359 43.132c-.4360017-.0008458-.8212001-.2840799-.952-.7l-3.559-11.127c-.1384307-.3472193-.07165359-.7426555.17311882-1.0251634.2447724-.282508.62666933-.404916.99006297-.3173413.36339364.0875748.64760648.3705095.73681821.7335047l3.56 11.131c.1681637.5260506-.1219533 1.0888239-.648 1.257-.097235.0315209-.1987839.0477148-.301.048z" fill="#fff"/><g fill="#84b5cb"><circle id="Oval" cx="38" cy="21" r="2"/><circle id="Oval" cx="43.5" cy="6.5" r="3.5"/><circle id="Oval" cx="45.5" cy="16.5" r="2.5"/></g><path id="Shape" d="m13.5 18c-.2442362.000105-.4800671-.0891764-.663-.251-1.1162288-.7857392-1.7969309-2.0515414-1.837-3.416.0405369-1.3640608.7211691-2.6293623 1.837-3.415.768-.692 1.163-1.086 1.163-1.93s-.4-1.23-1.163-1.9c-1.1170067-.78732141-1.797706-2.05497111-1.837-3.421.0400691-1.3644586.7207712-2.63026076 1.837-3.416.2679492-.2368671.6419115-.31279212.9810191-.19917486.3391075.11361726.5918417.39951565.663.75000001s-.0500699.71230777-.3180191.94917485c-.743.655-1.163 1.068-1.163 1.916s.42 1.26 1.163 1.918c1.1199662.77648725 1.8023719 2.04062795 1.837 3.403-.0340844 1.3556528-.7056653 2.6157935-1.812 3.4-.768.685-1.188 1.098-1.188 1.945s.42 1.261 1.163 1.918c.3113572.2754284.4198493.7147547.272501 1.1034609-.1473484.3887063-.5198039.6457179-.935501.6455391z" fill="#ff5364"/><path id="Shape" d="m19.5 18c-.2442362.000105-.4800671-.0891764-.663-.251-1.1162288-.7857392-1.7969309-2.0515414-1.837-3.416.0405369-1.3640608.7211691-2.6293623 1.837-3.415.768-.692 1.163-1.086 1.163-1.93s-.4-1.23-1.163-1.9c-1.1170067-.78732141-1.797706-2.05497111-1.837-3.421.0400691-1.3644586.7207712-2.63026076 1.837-3.416.2679492-.2368671.6419115-.31279212.9810191-.19917486.3391075.11361726.5918417.39951565.663.75000001s-.0500699.71230777-.3180191.94917485c-.743.655-1.163 1.068-1.163 1.916s.42 1.26 1.163 1.918c1.1199662.77648725 1.8023719 2.04062795 1.837 3.403-.0340844 1.3556528-.7056653 2.6157935-1.812 3.4-.768.685-1.188 1.098-1.188 1.945s.42 1.261 1.163 1.918c.3113572.2754284.4198493.7147547.272501 1.1034609-.1473484.3887063-.5198039.6457179-.935501.6455391z" fill="#ff5364"/><path id="Shape" d="m25.5 18c-.2442362.000105-.4800671-.0891764-.663-.251-1.1162288-.7857392-1.7969309-2.0515414-1.837-3.416.0405369-1.3640608.7211691-2.6293623 1.837-3.415.768-.692 1.163-1.086 1.163-1.93s-.4-1.23-1.163-1.9c-1.1170067-.78732141-1.797706-2.05497111-1.837-3.421.0400691-1.3644586.7207712-2.63026076 1.837-3.416.2679492-.2368671.6419115-.31279212.9810191-.19917486.3391075.11361726.5918417.39951565.663.75000001s-.0500699.71230777-.3180191.94917485c-.743.655-1.163 1.068-1.163 1.916s.42 1.26 1.163 1.918c1.1199662.77648725 1.8023719 2.04062795 1.837 3.403-.0340844 1.3556528-.7056653 2.6157935-1.812 3.4-.768.685-1.188 1.098-1.188 1.945s.42 1.261 1.163 1.918c.3113572.2754284.4198493.7147547.272501 1.1034609-.1473484.3887063-.5198039.6457179-.935501.6455391z" fill="#ff5364"/><path id="Shape" d="m34 26.81.0000126 11.19h-10.0000252l.0000126-14.5c-.001678-.3343556.1638606-.647427.4411339-.8342851.2772734-.1868582.6295895-.2227758.9388661-.0957149l8 3.31c.3767941.1547874.6220401.5226565.62.93z" fill="#f0c419"/><path id="Shape" d="m34 38v3c-.0032948 1.1032019-.8967981 1.9967052-2 2h-6c-1.1032019-.0032948-1.9967052-.8967981-2-2v-3z" fill="#f3d55b"/><path id="Shape" d="m22 57c-.0081672 1.1011688-.8988312 1.9918328-2 2h-4c-1.1032019-.0032948-1.9967052-.8967981-2-2 .0081672-1.1011688.8988312-1.9918328 2-2h4c1.1032019.0032948 1.9967052.8967981 2 2z" fill="#2980ba"/><path id="Shape" d="m46 57c-.0081672 1.1011688-.8988312 1.9918328-2 2h-4c-1.1032019-.0032948-1.9967052-.8967981-2-2 .0081672-1.1011688.8988312-1.9918328 2-2h4c1.1032019.0032948 1.9967052.8967981 2 2z" fill="#2980ba"/></g></g></svg>