<svg height="512" viewBox="0 0 64 64" width="512" xmlns="http://www.w3.org/2000/svg"><g id="Flat"><g id="Stroke_copy_2" data-name="Stroke copy 2"><g><rect fill="#f89c8d" height="44" rx="4" width="58" x="3" y="17"/><path d="m7 21h24v14h-24z" fill="#f8664f"/><path d="m7 21v14h24v-14zm22 10h-10a8 8 0 0 1 -8-8h14a4 4 0 0 1 4 4z" fill="#cc5144"/><path d="m7 39h24v18h-24z" fill="#e9f1f2"/><path d="m31 40.17v2.81l-9.91 5.02-1.53-1.29z" fill="#d0d8da"/><path d="m27.93 39-10.16 6.68-1.63-1.15 7.5-5.53z" fill="#d0d8da"/><path d="m7 39v18h24v-18zm22 12a3 3 0 0 1 -3 3c-.09 0-.175-.019-.263-.027a1.992 1.992 0 0 1 -3.583-.2 2.971 2.971 0 0 1 -3.154-.552l-.024.021a2.989 2.989 0 0 1 -4.652 2.247 1.992 1.992 0 0 1 -3.324-1.489c0-.061.013-.118.018-.178a2.972 2.972 0 0 1 -1.8-3.932 1.974 1.974 0 0 1 -.218-.89 2 2 0 0 1 1.231-1.846 3.009 3.009 0 0 1 -.207-.912 2.99 2.99 0 1 1 4.593-3.682 1.99 1.99 0 0 1 1.383-.56 1.905 1.905 0 0 1 .263.027 1.993 1.993 0 1 1 3.047 2.473c.024.021.051.038.073.06a2.989 2.989 0 0 1 2.617-1.56c.061 0 .118.014.178.018a2.992 2.992 0 1 1 5.026 3 1.982 1.982 0 0 1 1.284 3.3 2.986 2.986 0 0 1 .512 1.682z" fill="#d0d8da"/><path d="m35 21h22v36h-22z" fill="#f8664f"/><path d="m35 21v36h22v-36zm20 30h-1a13 13 0 0 1 -13-13v-15h11a3 3 0 0 1 3 3z" fill="#cc5144"/><g><circle cx="40.5" cy="41.5" fill="#7ab92d" r="2.5"/><path d="m38.246 32.97a1.069 1.069 0 0 0 1.326-1.318l-.492-1.752a1.071 1.071 0 0 1 1.72-1.119 1.07 1.07 0 0 0 1.751-.9l-.185-2.572a1.071 1.071 0 0 1 1.4-1.095l3.172 1.033a1.071 1.071 0 0 1 .687 1.35l-1.225 3.735-4.068 8.007-4.943-3.081a1.246 1.246 0 0 1 .854-2.288z" fill="#5ba006"/><path d="m44 42-3.606 1.546a2 2 0 0 0 -.322 3.5l2.928 1.954 2-6z" fill="#a1d51c"/><path d="m51.908 43.7a2.963 2.963 0 0 0 .092-.7 3 3 0 1 0 -4.908 2.3 2.963 2.963 0 0 0 -.092.7 3 3 0 1 0 4.908-2.3z" fill="#f89c8d"/><circle cx="49" cy="29" fill="#7ab92d" r="3"/><path d="m52 37c0-5.523-6-10-6-10s-6 4.477-6 10c0 3.277 2.109 6.176 3.826 8-1.717 1.824-3.826 4.723-3.826 8a13.414 13.414 0 0 1 12 0c0-3.277-2.109-6.176-3.827-8 1.718-1.824 3.827-4.723 3.827-8z" fill="#84d2f4"/><path d="m52 53a15.18 15.18 0 0 0 -1.56-.66 13.163 13.163 0 0 0 -2.53-.62 13.1 13.1 0 0 0 -3.82 0 13.163 13.163 0 0 0 -2.53.62 15.18 15.18 0 0 0 -1.56.66c0-3.28 2.11-6.18 3.83-8-1.72-1.82-3.83-4.72-3.83-8 0-5.52 6-10 6-10a17 17 0 0 1 1.5 1.32c-1.78 1.71-4.5 4.96-4.5 8.68a11.375 11.375 0 0 0 2.86 6.9 1.678 1.678 0 0 1 -.09 2.22 1.665 1.665 0 0 0 -.46 1.16 1.7 1.7 0 0 0 1.7 1.72h4a9.269 9.269 0 0 1 .99 4z" fill="#57b7eb"/><path d="m46 42a1 1 0 0 1 -1-1v-3a1 1 0 0 1 2 0v3a1 1 0 0 1 -1 1z" fill="#57b7eb"/><path d="m50.44 52.34a13.163 13.163 0 0 0 -2.53-.62l-.14-.28a1 1 0 1 1 1.8-.88z" fill="#4891d3"/><path d="m44.23 51.44-.14.28a13.163 13.163 0 0 0 -2.53.62l.87-1.78a1 1 0 1 1 1.8.88z" fill="#4891d3"/><path d="m46 27s-4.9 3.671-5.834 8.462a7.974 7.974 0 0 0 11.668 0c-.934-4.791-5.834-8.462-5.834-8.462z" fill="#e9f1f2"/><path d="m43 37a2.954 2.954 0 0 0 .02.42 8.076 8.076 0 0 1 -2.85-1.96c.93-4.79 5.83-8.46 5.83-8.46a17 17 0 0 1 1.5 1.32c-1.78 1.71-4.5 4.96-4.5 8.68z" fill="#d0d8da"/><circle cx="45" cy="33" fill="#57b7eb" r="1"/></g><g><circle cx="15" cy="28" fill="#7ab92d" r="3"/><path d="m18 28a3 3 0 1 1 -3.87-2.87 3.1 3.1 0 0 0 -.13.87 2.929 2.929 0 0 0 1.02 2.24.974.974 0 0 1 -.02-.24 3 3 0 0 1 1.5-2.6 3 3 0 0 1 1.5 2.6z" fill="#5ba006"/><circle cx="19" cy="28" fill="#a1d51c" r="3"/><path d="m22 28a3 3 0 1 1 -3.87-2.87 3.1 3.1 0 0 0 -.13.87 2.929 2.929 0 0 0 1.02 2.24.974.974 0 0 1 -.02-.24 3 3 0 0 1 1.5-2.6 3 3 0 0 1 1.5 2.6z" fill="#7ab92d"/><circle cx="23" cy="28" fill="#c4f236" r="3"/><path d="m25.87 28.87a3 3 0 1 1 -3.74-3.74 3.1 3.1 0 0 0 -.13.87 3 3 0 0 0 3 3 3.1 3.1 0 0 0 .87-.13z" fill="#a1d51c"/><path d="m26 28a2.772 2.772 0 0 1 -.18 1h-1.82a1 1 0 0 1 0-2h1.82a2.772 2.772 0 0 1 .18 1z" fill="#7ab92d"/></g><g><path d="m54 10.341-32.905 37.659-1.533-1.285 31.374-38.945z" fill="#f9e109"/><path d="m47.272 5.294-29.498 40.384-1.638-1.147 27.86-41.531z" fill="#f9e109"/><g fill="#fcbc04"><path d="m54 10.34-32.91 37.66-1.53-1.29 1.23-1.53a2.016 2.016 0 0 0 1.62-.69l30.58-35z"/><path d="m47.27 5.29-29.5 40.39-1.63-1.15 1.1-1.63a2.023 2.023 0 0 0 1.71-.84l27.35-37.45z"/></g></g><path d="m60.64 58.64a3.988 3.988 0 0 1 -3.64 2.36h-50a4 4 0 0 1 -4-4v-36a3.988 3.988 0 0 1 2.36-3.64 3.931 3.931 0 0 0 -.36 1.64v36a4 4 0 0 0 4 4h50a3.931 3.931 0 0 0 1.64-.36z" fill="#f8664f"/><g fill="#93999a"><circle cx="22" cy="53" r="1"/><circle cx="12" cy="48" r="1"/><circle cx="27" cy="53" r="1"/><circle cx="28" cy="46" r="1"/><circle cx="16" cy="48" r="1"/><path d="m24 51a1 1 0 0 1 -.707-1.707l1-1a1 1 0 0 1 1.414 1.414l-1 1a1 1 0 0 1 -.707.293z"/><path d="m11 54a1 1 0 0 1 -.707-1.707l1-1a1 1 0 0 1 1.414 1.414l-1 1a1 1 0 0 1 -.707.293z"/><path d="m17 54a1 1 0 0 1 -.707-.293l-1-1a1 1 0 0 1 1.414-1.414l1 1a1 1 0 0 1 -.707 1.707z"/><path d="m12 45a1 1 0 0 1 -1-1v-1a1 1 0 0 1 2 0v1a1 1 0 0 1 -1 1z"/></g></g></g></g></svg>