<svg id="レイヤー_1" data-name="レイヤー 1" xmlns="http://www.w3.org/2000/svg" viewBox="0 0 199.15 199.15"><defs><style>.cls-1{fill:#c1e3e1;}.cls-2{fill:#001d36;}</style></defs><rect class="cls-1" width="199.15" height="199.15" rx="5.67"/><path class="cls-2" d="M55,112.62a11.86,11.86,0,0,1-10.72,7.75c-8.09,0-12.92-5.12-12.92-13.64a12.84,12.84,0,0,1,13.3-13.3c5.88,0,9.24,2.47,9.24,6.43,0,2.42-1.65,4-4.24,4s-4.23-1.54-4.23-3.91a9,9,0,0,1,.94-2.74l.27-.77a1.74,1.74,0,0,0-1.92-1.6C41.8,94.8,40,99,40,106.29c0,6.38,2.7,10.67,6.49,10.67,3.52,0,5.66-1.54,7.26-5.12Z"/><path class="cls-2" d="M71.6,119.54H56.15v-1.15c2.92-.22,3.74-.94,3.74-2.86v-31a3.85,3.85,0,0,0-1.15-2.91,7.92,7.92,0,0,0-4.13-1.32v-1.1l12.81-.66.39.38v36.34c0,2.15,1.65,2.92,3.79,3.14Z"/><path class="cls-2" d="M86.22,120.37A13,13,0,0,1,72.7,106.84c0-7.91,5.5-13.41,13.75-13.41q6.18,0,9.89,3.63a12.83,12.83,0,0,1,3.74,9.62C100.08,114.92,94.75,120.37,86.22,120.37Zm.28-25.62c-3.3,0-4.89,3.57-4.89,11.76,0,8.58,1.59,12.43,4.84,12.43s4.78-4.13,4.78-12.32S89.63,94.75,86.5,94.75Z"/><path class="cls-2" d="M113.44,120.37a12.88,12.88,0,0,1-7.53-2.37l-1,1.87h-1.65l-.28-9.51h1.1c1.49,4.51,5.28,8.58,9,8.58,2.8,0,4.12-1.65,4.12-4.24a3.32,3.32,0,0,0-.55-1.92,4,4,0,0,0-1.54-1.43,24.25,24.25,0,0,0-4.18-1.7c-5.22-1.82-7.2-4.51-7.2-8.47a6.92,6.92,0,0,1,2.64-5.55,10.79,10.79,0,0,1,7.09-2.2,15.1,15.1,0,0,1,6.65,1.48l.72-1.54h1.59l.33,8.69h-1c-1.32-4.18-4.57-7.2-7.43-7.2-2.36,0-3.68,1.26-3.68,3.68a3.91,3.91,0,0,0,.39,1.92,3.87,3.87,0,0,0,1.37,1.32,22.3,22.3,0,0,0,4.29,1.65c5.06,1.71,7.37,4.4,7.37,8.41C124,117,119.82,120.37,113.44,120.37Z"/><path class="cls-2" d="M151.6,112.83a12.84,12.84,0,0,1-11.55,7.54c-8.19,0-13.19-5.28-13.19-13.64-.11-7.47,5.22-13.47,12.81-13.3,7.2,0,11.32,4,11.32,10.94v.77H135.43l-.05.33c0,7.69,2.58,11.6,7.42,11.6,3.46,0,5.72-1.32,7.7-5.06Zm-9.13-9.34a29.49,29.49,0,0,0-.33-5.44c-.39-2-1.27-3.19-2.86-3.19-2.58,0-3.68,3.19-3.85,8.74Z"/><path class="cls-2" d="M171.88,103.27c-2.36,0-4.07-1.32-4.07-3.57a9.84,9.84,0,0,1,.66-2.64,5.58,5.58,0,0,0-4.34,2.64v15.61c.28,2,.61,2.64,5.11,3.08v1.15H152.48v-1.15c2.91-.22,3.68-.88,3.68-2.86V99.26c0-1.76-1.1-3.52-4.18-3.74v-1.1l11.77-.66.38.38v3.69h.11c2.2-2.86,4.45-4.29,7.09-4.29a4.71,4.71,0,0,1,4.79,5A4.44,4.44,0,0,1,171.88,103.27Z"/><rect class="cls-2" x="22.68" y="84.43" width="17.13" height="5.02" rx="1.01"/><rect class="cls-2" x="28.74" y="78.37" width="5.02" height="17.13" rx="1.01"/></svg>