<svg id="flat" height="512" viewBox="0 0 512 512" width="512" xmlns="http://www.w3.org/2000/svg"><path d="m224 320v-8a40 40 0 0 0 -40-40h-80v48z" fill="#4976f2"/><path d="m128 320v-24a24 24 0 0 0 -24-24h-24a24 24 0 0 0 -24 24v24z" fill="#548aff"/><path d="m40 320 24 168h152l24-168z" fill="#c78640"/><path d="m144 296h37.87548a16 16 0 0 1 15.87645 17.98456l-13.75193 110.01544h-40z" fill="#ef5e3b"/><path d="m16 48h480v32h-480z" fill="#b1712c"/><path d="m440 48v232h-56l-16-152-16 152h-56v-232z" fill="#548aff"/><path d="m72 48v48h40v120h112v-120h40v-48z" fill="#ffc431"/><path d="m192 48v8a24 24 0 0 1 -24 24 24 24 0 0 1 -24-24v-8z" fill="#ffa100"/><path d="m96 24h24v32h-24z" fill="#ffd873"/><path d="m216 24h24v32h-24z" fill="#ffd873"/><path d="m336 48v15.01a50.17461 50.17461 0 0 1 -38.06 48.75l-1.94.49v-16.56006a34.19213 34.19213 0 0 0 24-32.67994v-15.01z" fill="#4f7ff7"/><path d="m440 95.68994v16.56006l-1.94-.49a50.17461 50.17461 0 0 1 -38.06-48.75v-15.01h16v15.01a34.19213 34.19213 0 0 0 24 32.67994z" fill="#4f7ff7"/><path d="m367.99962 127.99981a8.00005 8.00005 0 0 1 -3.57734-10.733l3.57772-7.15548v-62.11133h16v63.99981a8.00128 8.00128 0 0 1 -.84473 3.57831l-4.42207 8.84415a8 8 0 0 1 -10.73358 3.57754z" fill="#4f7ff7"/><path d="m112 296h48l-8 104h-40z" fill="#ffa100"/><path d="m248 416h208l-24 72h-160z" fill="#d1e4ff"/><path d="m264 416v-19.31372a12.68628 12.68628 0 0 1 12.68628-12.68628h1.42519a28.94424 28.94424 0 0 0 25.88553-15.994l.006-.01208a28.94424 28.94424 0 0 1 25.88553-15.99392h2.79777a27.31368 27.31368 0 0 1 19.3137 8 27.31368 27.31368 0 0 0 19.31369 8h17.3726a27.31368 27.31368 0 0 1 19.31371 8 27.31368 27.31368 0 0 0 19.31369 8 12.68628 12.68628 0 0 1 12.68631 12.68628v19.31372z" fill="#9ce6ed"/><g fill="#bbedf2"><circle cx="328" cy="328" r="8"/><circle cx="272" cy="312" r="8"/><circle cx="288" cy="344" r="8"/><circle cx="360" cy="336" r="8"/><circle cx="408" cy="312" r="8"/><circle cx="416" cy="352" r="8"/></g><path d="m320 24h24v32h-24z" fill="#7dafff"/><path d="m392 24h24v32h-24z" fill="#7dafff"/><path d="m96 296h24a0 0 0 0 1 0 0v64a0 0 0 0 1 0 0h-40a0 0 0 0 1 0 0v-48a16 16 0 0 1 16-16z" fill="#ffc431"/></svg>