<svg height="512" viewBox="0 0 64 64" width="512" xmlns="http://www.w3.org/2000/svg"><g id="flat"><path d="m54 34h-9a2 2 0 0 1 0-4h7.327z" fill="#d3843d"/><path d="m40.027 39.664a2.075 2.075 0 0 1 2.08-1.664h4.893l4-4-1-1a2.715 2.715 0 0 1 0-4l5-6a4.933 4.933 0 0 1 4-2h2v9l-4 8-9 4h-6a2 2 0 0 1 -1.973-2.336z" fill="#ffd782"/><rect fill="#f9bb4b" height="2" rx="1" transform="matrix(.707 -.707 .707 .707 -7.385 47.525)" width="7.071" x="50.14" y="31.678"/><path d="m44 38a2 2 0 0 1 0-4h7l-4 4z" fill="#f9bb4b"/><path d="m33 61h-7l-4-11-3-5-1.1 2.2-.89 1.8a4.077 4.077 0 0 1 .99 4l-2 4h2.92a2.048 2.048 0 0 1 1.98 1.35 2.009 2.009 0 0 1 -1.9 2.65h-16l2-4-2-2v-5c0-6.63 7-16 15-19v-4h16v12a8.664 8.664 0 0 1 -2 6l-3 3 2 9h1.92a2.048 2.048 0 0 1 1.98 1.35 2.009 2.009 0 0 1 -1.9 2.65z" fill="#ad6327"/><path d="m34 28 4-3 5-5 4-1a3 3 0 0 1 3 3 3 3 0 0 1 -3 3h-2l-5 5-6 6z" fill="#934f1c"/><path d="m18 11 6-2h4l6 2 2 4-2 12h-16l-2-12z" fill="#ad6327"/><path d="m28 9s2.769-6.948 5-5.891c2.04.967 1 7.891 1 7.891z" fill="#934f1c"/><path d="m24 9s-2.769-6.948-5-5.891c-2.04.967-1 7.891-1 7.891z" fill="#934f1c"/><path d="m21 14h2v2h-2z" fill="#394d5c"/><path d="m29 14h2v2h-2z" fill="#394d5c"/><rect fill="#934f1c" height="6" rx="1" width="2" x="18" y="39"/><path d="m17.9 47.2-.89 1.8c-.084-.056-2.1-1.22-5.089 2.053a1 1 0 0 1 -1.364.113 1.008 1.008 0 0 1 -.11-1.463c3.687-4.038 6.691-2.898 7.453-2.503z" fill="#934f1c"/><path d="m18 27h16v4h-16z" fill="#f9bb4b"/><circle cx="26" cy="33" fill="#fcf05a" r="2"/><path d="m45.041 4.988a3.439 3.439 0 0 0 -5 0 3.522 3.522 0 0 0 0 5l5.006 4.012 4.994-4.012a3.521 3.521 0 0 0 0-5 3.473 3.473 0 0 0 -5 0z" fill="#d9176c"/><path d="m29 21a1 1 0 0 1 -2 0v-2h-2v2a1 1 0 0 1 -2 0h-2a2.987 2.987 0 0 0 5 2.219 2.987 2.987 0 0 0 5-2.219z" fill="#934f1c"/><path d="m24 18c0 1.1.895 3 2 3s2-1.895 2-3-.895-1-2-1-2-.1-2 1z" fill="#301a12"/></g></svg>