<svg height="511pt" viewBox="-25 1 511 511.99964" width="511pt" xmlns="http://www.w3.org/2000/svg"><path d="m206.246094 187.042969-3.601563-23.191407c-.742187-4.777343 2.394531-9.296874 7.128907-10.277343 21.238281-4.394531 20.285156-4.109375 21.53125-4.660157l16.820312-7.421874c5.0625-2.230469 10.925781.542968 12.40625 5.867187l6.699219 24.054687c.425781 1.53125 1.246093 2.925782 2.382812 4.042969l8.695313 8.53125c4.316406 4.238281 3.355468 11.4375-1.921875 14.394531l-18.667969 10.457032-16.863281 8.355468c-3.609375 1.789063-7.964844.984376-10.695313-1.976562l-21.613281-23.414062c-1.222656-1.324219-2.023437-2.980469-2.300781-4.761719zm0 0" fill="#3c5a73"/><path d="m449.613281 277.300781c0 48.824219-39.582031 88.40625-88.40625 88.40625s-88.402343-39.582031-88.402343-88.40625 39.578124-88.40625 88.402343-88.40625 88.40625 39.582031 88.40625 88.40625zm0 0" fill="#6c9baa"/><path d="m274.101562 297.542969 12.703126 198.097656c.589843 9.199219 8.226562 16.359375 17.445312 16.359375h113.917969c9.21875 0 16.851562-7.160156 17.441406-16.359375l12.707031-198.097656zm0 0" fill="#3c5a73"/><path d="m445.453125 312.457031h-168.492187c-8.589844 0-15.554688-6.964843-15.554688-15.554687s6.964844-15.554688 15.554688-15.554688h168.492187c8.589844 0 15.554687 6.964844 15.554687 15.554688s-6.964843 15.554687-15.554687 15.554687zm0 0" fill="#55879b"/><path d="m410.382812 408.917969c0 27.15625-22.015624 49.175781-49.175781 49.175781-27.15625 0-49.175781-22.019531-49.175781-49.175781 0-27.160157 22.019531-49.175781 49.175781-49.175781 27.160157 0 49.175781 22.015624 49.175781 49.175781zm0 0" fill="#e4f2f6"/><g fill="#87afb9"><path d="m361.207031 442.992188c-8.730469 0-17.460937-3.324219-24.105469-9.972657-13.289062-13.289062-13.289062-34.917969 0-48.207031 2.433594-2.433594 6.375-2.433594 8.804688 0 2.429688 2.429688 2.429688 6.371094 0 8.804688-8.433594 8.433593-8.433594 22.164062 0 30.597656 8.4375 8.4375 22.164062 8.4375 30.601562 0 4.085938-4.085938 6.335938-9.519532 6.335938-15.296875 0-5.78125-2.25-11.214844-6.335938-15.300781-2.433593-2.433594-2.433593-6.375 0-8.804688 2.429688-2.433594 6.371094-2.433594 8.804688 0 6.4375 6.4375 9.984375 14.996094 9.984375 24.105469 0 9.105469-3.546875 17.664062-9.984375 24.101562-6.644531 6.648438-15.375 9.972657-24.105469 9.972657zm0 0"/><path d="m361.207031 415.144531c-3.4375 0-6.226562-2.789062-6.226562-6.226562v-27.863281c0-3.441407 2.789062-6.226563 6.226562-6.226563s6.226563 2.785156 6.226563 6.226563v27.863281c0 3.4375-2.789063 6.226562-6.226563 6.226562zm0 0"/><path d="m361.207031 188.894531c-14.316406 0-27.839843 3.410157-39.800781 9.453125v32.023438c0 21.984375 17.820312 39.804687 39.800781 39.804687 21.984375 0 39.804688-17.820312 39.804688-39.804687v-32.023438c-11.964844-6.042968-25.484375-9.453125-39.804688-9.453125zm0 0"/></g><path d="m18.148438 510.871094c-13.21875-4.09375-20.613282-18.128906-16.519532-31.347656l33.039063-106.675782 3.339843-79.886718c.582032-13.828126 12.257813-24.570313 26.082032-23.988282 13.824218.578125 24.5625 12.253906 23.984375 26.082032l-3.476563 83.140624c-.089844 2.164063-.460937 4.300782-1.101562 6.367188l-34 109.785156c-4.082032 13.175782-18.089844 20.628906-31.347656 16.523438zm0 0" fill="#5f6e9b"/><path d="m146.902344 490.320312-16.070313-118.03125-36.085937-92.324218c-5.039063-12.886719 1.324218-27.417969 14.214844-32.457032 12.890624-5.039062 27.421874 1.328126 32.457031 14.214844l37.175781 95.105469c.722656 1.847656 1.222656 3.777344 1.488281 5.742187l16.46875 120.992188c1.867188 13.710938-7.734375 26.339844-21.445312 28.203125-13.738281 1.871094-26.34375-7.761719-28.203125-21.445313zm0 0" fill="#414b82"/><path d="m153.269531 292.03125h-115.1875v-156.207031c0-16.816407 13.632813-30.449219 30.445313-30.449219h54.296875c16.8125 0 30.445312 13.632812 30.445312 30.449219zm0 0" fill="#64afff"/><path d="m147.996094 45.070312c0 24.890626-20.175782 45.070313-45.066406 45.070313-24.894532 0-45.070313-20.179687-45.070313-45.070313 0-24.890624 20.175781-45.070312 45.070313-45.070312 24.890624 0 45.066406 20.179688 45.066406 45.070312zm0 0" fill="#f5a990"/><path d="m228.023438 229.328125-85.980469-3.558594c-5.628907-.230469-10.902344-2.824219-14.523438-7.136719l-57.53125-68.515624c-7.117187-8.480469-6.015625-21.121094 2.460938-28.242188 8.480469-7.117188 21.121093-6.015625 28.242187 2.460938l51.84375 61.746093 77.148438 3.191407c11.058594.460937 19.652344 9.796874 19.195312 20.855468-.457031 11.050782-9.785156 19.660156-20.855468 19.199219zm0 0" fill="#f5a990"/><path d="m128.9375 157.976562-28.246094-33.640624c-7.121094-8.476563-19.761718-9.578126-28.242187-2.460938-8.476563 7.121094-9.578125 19.761719-2.460938 28.242188l28.207031 33.589843zm0 0" fill="#4699f2"/></svg>